<?xml version="1.0" encoding="UTF-8" standalone="no"?>
<!-- Created with Inkscape (http://www.inkscape.org/) -->

<svg
   width="512"
   height="512"
   viewBox="0 0 135.46666 135.46667"
   version="1.1"
   id="svg5"
   inkscape:version="1.1 (c68e22c387, 2021-05-23)"
   sodipodi:docname="drawing.svg"
   xmlns:inkscape="http://www.inkscape.org/namespaces/inkscape"
   xmlns:sodipodi="http://sodipodi.sourceforge.net/DTD/sodipodi-0.dtd"
   xmlns="http://www.w3.org/2000/svg"
   xmlns:svg="http://www.w3.org/2000/svg">
  <sodipodi:namedview
     id="namedview7"
     pagecolor="#ffffff"
     bordercolor="#666666"
     borderopacity="1.0"
     inkscape:pageshadow="2"
     inkscape:pageopacity="0.0"
     inkscape:pagecheckerboard="0"
     inkscape:document-units="px"
     showgrid="false"
     units="px"
     inkscape:zoom="1.332716"
     inkscape:cx="128.68458"
     inkscape:cy="139.18944"
     inkscape:window-width="1920"
     inkscape:window-height="1017"
     inkscape:window-x="1912"
     inkscape:window-y="-8"
     inkscape:window-maximized="1"
     inkscape:current-layer="text4544" />
  <defs
     id="defs2" />
  <g
     inkscape:label="Layer 1"
     inkscape:groupmode="layer"
     id="layer1">
    <g
       aria-label="     wwwwwww     wwwwwww         wwwww   
       wwww        wwww            w     
        wwww        wwww          w      
         wwww        wwww        w       
          wwww      w wwww      w        
          wwwww    w   wwww    ww        
           wwww   w     wwww  ww         
            wwww w       wwwwww          
             wwww        wwwww           
              www         www            
               w           w             "
       id="text4544"
       style="font-size:5.64444px;line-height:1.25;fill:#e08374;stroke-width:0.264583">
      <path
         d="m 14.665362,34.544117 -0.389467,-2.178754 -0.417688,2.178754 h -0.654755 l -0.536222,-2.97462 h 0.479777 l 0.383822,2.681109 0.474133,-2.302932 h 0.5588 l 0.445911,2.302932 0.383821,-2.681109 h 0.4572 l -0.513644,2.97462 z"
         style="font-family:'Fira Mono';-inkscape-font-specification:'Fira Mono'"
         id="path12231" />
      <path
         d="m 18.052018,34.544117 -0.389467,-2.178754 -0.417688,2.178754 h -0.654755 l -0.536222,-2.97462 h 0.479777 l 0.383822,2.681109 0.474133,-2.302932 h 0.5588 l 0.44591,2.302932 0.383822,-2.681109 h 0.4572 l -0.513644,2.97462 z"
         style="font-family:'Fira Mono';-inkscape-font-specification:'Fira Mono'"
         id="path12233" />
      <path
         d="m 21.438673,34.544117 -0.389466,-2.178754 -0.417689,2.178754 h -0.654755 l -0.536222,-2.97462 h 0.479778 l 0.383822,2.681109 0.474133,-2.302932 h 0.558799 l 0.445911,2.302932 0.383822,-2.681109 h 0.4572 l -0.513644,2.97462 z"
         style="font-family:'Fira Mono';-inkscape-font-specification:'Fira Mono'"
         id="path12235" />
      <path
         d="m 24.825329,34.544117 -0.389466,-2.178754 -0.417689,2.178754 h -0.654755 l -0.536222,-2.97462 h 0.479778 l 0.383822,2.681109 0.474133,-2.302932 h 0.558799 l 0.445911,2.302932 0.383822,-2.681109 h 0.4572 l -0.513644,2.97462 z"
         style="font-family:'Fira Mono';-inkscape-font-specification:'Fira Mono'"
         id="path12237" />
      <path
         d="m 28.211985,34.544117 -0.389466,-2.178754 -0.417689,2.178754 h -0.654755 l -0.536222,-2.97462 h 0.479778 l 0.383821,2.681109 0.474133,-2.302932 h 0.5588 l 0.445911,2.302932 0.383822,-2.681109 h 0.457199 l -0.513644,2.97462 z"
         style="font-family:'Fira Mono';-inkscape-font-specification:'Fira Mono'"
         id="path12239" />
      <path
         d="m 31.598639,34.544117 -0.389467,-2.178754 -0.417688,2.178754 h -0.654755 l -0.536222,-2.97462 h 0.479777 l 0.383822,2.681109 0.474133,-2.302932 h 0.5588 l 0.445911,2.302932 0.383822,-2.681109 h 0.457199 l -0.513644,2.97462 z"
         style="font-family:'Fira Mono';-inkscape-font-specification:'Fira Mono'"
         id="path12241" />
      <path
         d="m 34.985297,34.544117 -0.389467,-2.178754 -0.417688,2.178754 h -0.654755 l -0.536222,-2.97462 h 0.479777 l 0.383822,2.681109 0.474133,-2.302932 h 0.5588 l 0.44591,2.302932 0.383822,-2.681109 h 0.4572 l -0.513644,2.97462 z"
         style="font-family:'Fira Mono';-inkscape-font-specification:'Fira Mono'"
         id="path12243" />
      <path
         d="m 55.305228,34.544117 -0.389467,-2.178754 -0.417688,2.178754 h -0.654755 l -0.536222,-2.97462 h 0.479777 l 0.383822,2.681109 0.474133,-2.302932 h 0.5588 l 0.44591,2.302932 0.383822,-2.681109 h 0.4572 l -0.513644,2.97462 z"
         style="font-family:'Fira Mono';-inkscape-font-specification:'Fira Mono'"
         id="path12245" />
      <path
         d="m 58.691885,34.544117 -0.389466,-2.178754 -0.417689,2.178754 h -0.654755 l -0.536222,-2.97462 h 0.479778 l 0.383822,2.681109 0.474133,-2.302932 h 0.558799 l 0.445911,2.302932 0.383822,-2.681109 h 0.4572 l -0.513644,2.97462 z"
         style="font-family:'Fira Mono';-inkscape-font-specification:'Fira Mono'"
         id="path12247" />
      <path
         d="m 62.078543,34.544117 -0.389466,-2.178754 -0.417689,2.178754 h -0.654755 l -0.536222,-2.97462 h 0.479778 l 0.383822,2.681109 0.474133,-2.302932 h 0.558799 l 0.445911,2.302932 0.383822,-2.681109 h 0.457199 l -0.513644,2.97462 z"
         style="font-family:'Fira Mono';-inkscape-font-specification:'Fira Mono'"
         id="path12249" />
      <path
         d="m 65.465193,34.544117 -0.389466,-2.178754 -0.417689,2.178754 h -0.654755 l -0.536222,-2.97462 h 0.479778 l 0.383822,2.681109 0.474133,-2.302932 h 0.558799 l 0.445911,2.302932 0.383822,-2.681109 h 0.4572 l -0.513645,2.97462 z"
         style="font-family:'Fira Mono';-inkscape-font-specification:'Fira Mono'"
         id="path12251" />
      <path
         d="m 68.851851,34.544117 -0.389467,-2.178754 -0.417688,2.178754 h -0.654755 l -0.536222,-2.97462 h 0.479777 l 0.383822,2.681109 0.474133,-2.302932 h 0.5588 l 0.445911,2.302932 0.383822,-2.681109 h 0.457199 l -0.513644,2.97462 z"
         style="font-family:'Fira Mono';-inkscape-font-specification:'Fira Mono'"
         id="path12253" />
      <path
         d="m 72.238509,34.544117 -0.389467,-2.178754 -0.417688,2.178754 h -0.654755 l -0.536222,-2.97462 h 0.479777 l 0.383822,2.681109 0.474133,-2.302932 h 0.5588 l 0.44591,2.302932 0.383822,-2.681109 h 0.4572 l -0.513644,2.97462 z"
         style="font-family:'Fira Mono';-inkscape-font-specification:'Fira Mono'"
         id="path12255" />
      <path
         d="M 75.625166,34.544117 75.2357,32.365363 74.818011,34.544117 h -0.654755 l -0.536222,-2.97462 h 0.479778 l 0.383822,2.681109 0.474133,-2.302932 h 0.558799 l 0.445911,2.302932 0.383822,-2.681109 h 0.4572 l -0.513644,2.97462 z"
         style="font-family:'Fira Mono';-inkscape-font-specification:'Fira Mono'"
         id="path12257" />
      <path
         d="m 109.49172,34.544117 -0.38947,-2.178754 -0.41768,2.178754 h -0.65476 l -0.53622,-2.97462 h 0.47978 l 0.38382,2.681109 0.47413,-2.302932 h 0.5588 l 0.44591,2.302932 0.38382,-2.681109 h 0.4572 l -0.51364,2.97462 z"
         style="font-family:'Fira Mono';-inkscape-font-specification:'Fira Mono'"
         id="path12259" />
      <path
         d="m 112.87837,34.544117 -0.38947,-2.178754 -0.41768,2.178754 h -0.65476 l -0.53622,-2.97462 h 0.47978 l 0.38382,2.681109 0.47413,-2.302932 h 0.5588 l 0.44591,2.302932 0.38382,-2.681109 h 0.4572 l -0.51364,2.97462 z"
         style="font-family:'Fira Mono';-inkscape-font-specification:'Fira Mono'"
         id="path12261" />
      <path
         d="m 116.26503,34.544117 -0.38947,-2.178754 -0.41769,2.178754 h -0.65475 l -0.53622,-2.97462 h 0.47977 l 0.38383,2.681109 0.47413,-2.302932 h 0.5588 l 0.44591,2.302932 0.38382,-2.681109 h 0.4572 l -0.51364,2.97462 z"
         style="font-family:'Fira Mono';-inkscape-font-specification:'Fira Mono'"
         id="path12263" />
      <path
         d="m 119.65169,34.544117 -0.38947,-2.178754 -0.41769,2.178754 h -0.65475 l -0.53623,-2.97462 h 0.47978 l 0.38382,2.681109 0.47414,-2.302932 h 0.5588 l 0.44591,2.302932 0.38382,-2.681109 h 0.4572 l -0.51365,2.97462 z"
         style="font-family:'Fira Mono';-inkscape-font-specification:'Fira Mono'"
         id="path12265" />
      <path
         d="m 123.03834,34.544117 -0.38946,-2.178754 -0.41769,2.178754 h -0.65476 l -0.53622,-2.97462 h 0.47978 l 0.38382,2.681109 0.47413,-2.302932 h 0.5588 l 0.44591,2.302932 0.38383,-2.681109 h 0.4572 l -0.51365,2.97462 z"
         style="font-family:'Fira Mono';-inkscape-font-specification:'Fira Mono'"
         id="path12267" />
      <path
         d="m 21.438673,41.645746 -0.389466,-2.178753 -0.417689,2.178753 h -0.654755 l -0.536222,-2.97462 h 0.479778 l 0.383822,2.68111 0.474133,-2.302932 h 0.558799 l 0.445911,2.302932 0.383822,-2.68111 h 0.4572 l -0.513644,2.97462 z"
         style="font-family:'Fira Mono';-inkscape-font-specification:'Fira Mono'"
         id="path12269" />
      <path
         d="m 24.825329,41.645746 -0.389466,-2.178753 -0.417689,2.178753 h -0.654755 l -0.536222,-2.97462 h 0.479778 l 0.383822,2.68111 0.474133,-2.302932 h 0.558799 l 0.445911,2.302932 0.383822,-2.68111 h 0.4572 l -0.513644,2.97462 z"
         style="font-family:'Fira Mono';-inkscape-font-specification:'Fira Mono'"
         id="path12271" />
      <path
         d="m 28.211985,41.645746 -0.389466,-2.178753 -0.417689,2.178753 h -0.654755 l -0.536222,-2.97462 h 0.479778 l 0.383821,2.68111 0.474133,-2.302932 h 0.5588 l 0.445911,2.302932 0.383822,-2.68111 h 0.457199 l -0.513644,2.97462 z"
         style="font-family:'Fira Mono';-inkscape-font-specification:'Fira Mono'"
         id="path12273" />
      <path
         d="m 31.598639,41.645746 -0.389467,-2.178753 -0.417688,2.178753 h -0.654755 l -0.536222,-2.97462 h 0.479777 l 0.383822,2.68111 0.474133,-2.302932 h 0.5588 l 0.445911,2.302932 0.383822,-2.68111 h 0.457199 l -0.513644,2.97462 z"
         style="font-family:'Fira Mono';-inkscape-font-specification:'Fira Mono'"
         id="path12275" />
      <path
         d="m 62.078543,41.645746 -0.389466,-2.178753 -0.417689,2.178753 h -0.654755 l -0.536222,-2.97462 h 0.479778 l 0.383822,2.68111 0.474133,-2.302932 h 0.558799 l 0.445911,2.302932 0.383822,-2.68111 h 0.457199 l -0.513644,2.97462 z"
         style="font-family:'Fira Mono';-inkscape-font-specification:'Fira Mono'"
         id="path12277" />
      <path
         d="m 65.465193,41.645746 -0.389466,-2.178753 -0.417689,2.178753 h -0.654755 l -0.536222,-2.97462 h 0.479778 l 0.383822,2.68111 0.474133,-2.302932 h 0.558799 l 0.445911,2.302932 0.383822,-2.68111 h 0.4572 l -0.513645,2.97462 z"
         style="font-family:'Fira Mono';-inkscape-font-specification:'Fira Mono'"
         id="path12279" />
      <path
         d="m 68.851851,41.645746 -0.389467,-2.178753 -0.417688,2.178753 h -0.654755 l -0.536222,-2.97462 h 0.479777 l 0.383822,2.68111 0.474133,-2.302932 h 0.5588 l 0.445911,2.302932 0.383822,-2.68111 h 0.457199 l -0.513644,2.97462 z"
         style="font-family:'Fira Mono';-inkscape-font-specification:'Fira Mono'"
         id="path12281" />
      <path
         d="m 72.238509,41.645746 -0.389467,-2.178753 -0.417688,2.178753 h -0.654755 l -0.536222,-2.97462 h 0.479777 l 0.383822,2.68111 0.474133,-2.302932 h 0.5588 l 0.44591,2.302932 0.383822,-2.68111 h 0.4572 l -0.513644,2.97462 z"
         style="font-family:'Fira Mono';-inkscape-font-specification:'Fira Mono'"
         id="path12283" />
      <path
         d="m 116.26503,41.645746 -0.38947,-2.178753 -0.41769,2.178753 h -0.65475 l -0.53622,-2.97462 h 0.47977 l 0.38383,2.68111 0.47413,-2.302932 h 0.5588 l 0.44591,2.302932 0.38382,-2.68111 h 0.4572 l -0.51364,2.97462 z"
         style="font-family:'Fira Mono';-inkscape-font-specification:'Fira Mono'"
         id="path12285" />
      <path
         d="m 24.825329,48.747376 -0.389466,-2.178754 -0.417689,2.178754 h -0.654755 l -0.536222,-2.97462 h 0.479778 l 0.383822,2.681109 0.474133,-2.302932 h 0.558799 l 0.445911,2.302932 0.383822,-2.681109 h 0.4572 l -0.513644,2.97462 z"
         style="font-family:'Fira Mono';-inkscape-font-specification:'Fira Mono'"
         id="path12287" />
      <path
         d="m 28.211985,48.747376 -0.389466,-2.178754 -0.417689,2.178754 h -0.654755 l -0.536222,-2.97462 h 0.479778 l 0.383821,2.681109 0.474133,-2.302932 h 0.5588 l 0.445911,2.302932 0.383822,-2.681109 h 0.457199 l -0.513644,2.97462 z"
         style="font-family:'Fira Mono';-inkscape-font-specification:'Fira Mono'"
         id="path12289" />
      <path
         d="m 31.598639,48.747376 -0.389467,-2.178754 -0.417688,2.178754 h -0.654755 l -0.536222,-2.97462 h 0.479777 l 0.383822,2.681109 0.474133,-2.302932 h 0.5588 l 0.445911,2.302932 0.383822,-2.681109 h 0.457199 l -0.513644,2.97462 z"
         style="font-family:'Fira Mono';-inkscape-font-specification:'Fira Mono'"
         id="path12291" />
      <path
         d="m 34.985297,48.747376 -0.389467,-2.178754 -0.417688,2.178754 h -0.654755 l -0.536222,-2.97462 h 0.479777 l 0.383822,2.681109 0.474133,-2.302932 h 0.5588 l 0.44591,2.302932 0.383822,-2.681109 h 0.4572 l -0.513644,2.97462 z"
         style="font-family:'Fira Mono';-inkscape-font-specification:'Fira Mono'"
         id="path12293" />
      <path
         d="m 65.465193,48.747376 -0.389466,-2.178754 -0.417689,2.178754 h -0.654755 l -0.536222,-2.97462 h 0.479778 l 0.383822,2.681109 0.474133,-2.302932 h 0.558799 l 0.445911,2.302932 0.383822,-2.681109 h 0.4572 l -0.513645,2.97462 z"
         style="font-family:'Fira Mono';-inkscape-font-specification:'Fira Mono'"
         id="path12295" />
      <path
         d="m 68.851851,48.747376 -0.389467,-2.178754 -0.417688,2.178754 h -0.654755 l -0.536222,-2.97462 h 0.479777 l 0.383822,2.681109 0.474133,-2.302932 h 0.5588 l 0.445911,2.302932 0.383822,-2.681109 h 0.457199 l -0.513644,2.97462 z"
         style="font-family:'Fira Mono';-inkscape-font-specification:'Fira Mono'"
         id="path12297" />
      <path
         d="m 72.238509,48.747376 -0.389467,-2.178754 -0.417688,2.178754 h -0.654755 l -0.536222,-2.97462 h 0.479777 l 0.383822,2.681109 0.474133,-2.302932 h 0.5588 l 0.44591,2.302932 0.383822,-2.681109 h 0.4572 l -0.513644,2.97462 z"
         style="font-family:'Fira Mono';-inkscape-font-specification:'Fira Mono'"
         id="path12299" />
      <path
         d="M 75.625166,48.747376 75.2357,46.568622 74.818011,48.747376 h -0.654755 l -0.536222,-2.97462 h 0.479778 l 0.383822,2.681109 0.474133,-2.302932 h 0.558799 l 0.445911,2.302932 0.383822,-2.681109 h 0.4572 l -0.513644,2.97462 z"
         style="font-family:'Fira Mono';-inkscape-font-specification:'Fira Mono'"
         id="path12301" />
      <path
         d="m 112.87837,48.747376 -0.38947,-2.178754 -0.41768,2.178754 h -0.65476 l -0.53622,-2.97462 h 0.47978 l 0.38382,2.681109 0.47413,-2.302932 h 0.5588 l 0.44591,2.302932 0.38382,-2.681109 h 0.4572 l -0.51364,2.97462 z"
         style="font-family:'Fira Mono';-inkscape-font-specification:'Fira Mono'"
         id="path12303" />
      <path
         d="m 28.211985,55.849005 -0.389466,-2.178754 -0.417689,2.178754 h -0.654755 l -0.536222,-2.97462 h 0.479778 l 0.383821,2.681109 0.474133,-2.302931 h 0.5588 l 0.445911,2.302931 0.383822,-2.681109 h 0.457199 l -0.513644,2.97462 z"
         style="font-family:'Fira Mono';-inkscape-font-specification:'Fira Mono'"
         id="path12305" />
      <path
         d="m 31.598639,55.849005 -0.389467,-2.178754 -0.417688,2.178754 h -0.654755 l -0.536222,-2.97462 h 0.479777 l 0.383822,2.681109 0.474133,-2.302931 h 0.5588 l 0.445911,2.302931 0.383822,-2.681109 h 0.457199 l -0.513644,2.97462 z"
         style="font-family:'Fira Mono';-inkscape-font-specification:'Fira Mono'"
         id="path12307" />
      <path
         d="m 34.985297,55.849005 -0.389467,-2.178754 -0.417688,2.178754 h -0.654755 l -0.536222,-2.97462 h 0.479777 l 0.383822,2.681109 0.474133,-2.302931 h 0.5588 l 0.44591,2.302931 0.383822,-2.681109 h 0.4572 l -0.513644,2.97462 z"
         style="font-family:'Fira Mono';-inkscape-font-specification:'Fira Mono'"
         id="path12309" />
      <path
         d="m 38.37195,55.849005 -0.389466,-2.178754 -0.417688,2.178754 H 36.91004 l -0.536221,-2.97462 h 0.479777 l 0.383822,2.681109 0.474133,-2.302931 h 0.5588 l 0.44591,2.302931 0.383822,-2.681109 h 0.4572 l -0.513644,2.97462 z"
         style="font-family:'Fira Mono';-inkscape-font-specification:'Fira Mono'"
         id="path12311" />
      <path
         d="m 68.851851,55.849005 -0.389467,-2.178754 -0.417688,2.178754 h -0.654755 l -0.536222,-2.97462 h 0.479777 l 0.383822,2.681109 0.474133,-2.302931 h 0.5588 l 0.445911,2.302931 0.383822,-2.681109 h 0.457199 l -0.513644,2.97462 z"
         style="font-family:'Fira Mono';-inkscape-font-specification:'Fira Mono'"
         id="path12313" />
      <path
         d="m 72.238509,55.849005 -0.389467,-2.178754 -0.417688,2.178754 h -0.654755 l -0.536222,-2.97462 h 0.479777 l 0.383822,2.681109 0.474133,-2.302931 h 0.5588 l 0.44591,2.302931 0.383822,-2.681109 h 0.4572 l -0.513644,2.97462 z"
         style="font-family:'Fira Mono';-inkscape-font-specification:'Fira Mono'"
         id="path12315" />
      <path
         d="M 75.625166,55.849005 75.2357,53.670251 74.818011,55.849005 h -0.654755 l -0.536222,-2.97462 h 0.479778 l 0.383822,2.681109 0.474133,-2.302931 h 0.558799 l 0.445911,2.302931 0.383822,-2.681109 h 0.4572 l -0.513644,2.97462 z"
         style="font-family:'Fira Mono';-inkscape-font-specification:'Fira Mono'"
         id="path12317" />
      <path
         d="m 79.011816,55.849005 -0.389466,-2.178754 -0.417689,2.178754 h -0.654755 l -0.536221,-2.97462 h 0.479777 l 0.383822,2.681109 0.474133,-2.302931 h 0.558799 l 0.445911,2.302931 0.383822,-2.681109 h 0.4572 l -0.513644,2.97462 z"
         style="font-family:'Fira Mono';-inkscape-font-specification:'Fira Mono'"
         id="path12319" />
      <path
         d="m 109.49172,55.849005 -0.38947,-2.178754 -0.41768,2.178754 h -0.65476 l -0.53622,-2.97462 h 0.47978 l 0.38382,2.681109 0.47413,-2.302931 h 0.5588 l 0.44591,2.302931 0.38382,-2.681109 h 0.4572 l -0.51364,2.97462 z"
         style="font-family:'Fira Mono';-inkscape-font-specification:'Fira Mono'"
         id="path12321" />
      <path
         d="m 31.598639,62.950635 -0.389467,-2.178754 -0.417688,2.178754 h -0.654755 l -0.536222,-2.97462 h 0.479777 l 0.383822,2.681109 0.474133,-2.302932 h 0.5588 l 0.445911,2.302932 0.383822,-2.681109 h 0.457199 l -0.513644,2.97462 z"
         style="font-family:'Fira Mono';-inkscape-font-specification:'Fira Mono'"
         id="path12323" />
      <path
         d="m 34.985297,62.950635 -0.389467,-2.178754 -0.417688,2.178754 h -0.654755 l -0.536222,-2.97462 h 0.479777 l 0.383822,2.681109 0.474133,-2.302932 h 0.5588 l 0.44591,2.302932 0.383822,-2.681109 h 0.4572 l -0.513644,2.97462 z"
         style="font-family:'Fira Mono';-inkscape-font-specification:'Fira Mono'"
         id="path12325" />
      <path
         d="m 38.37195,62.950635 -0.389466,-2.178754 -0.417688,2.178754 H 36.91004 l -0.536221,-2.97462 h 0.479777 l 0.383822,2.681109 0.474133,-2.302932 h 0.5588 l 0.44591,2.302932 0.383822,-2.681109 h 0.4572 l -0.513644,2.97462 z"
         style="font-family:'Fira Mono';-inkscape-font-specification:'Fira Mono'"
         id="path12327" />
      <path
         d="m 41.758608,62.950635 -0.389466,-2.178754 -0.417689,2.178754 h -0.654755 l -0.536222,-2.97462 h 0.479778 l 0.383822,2.681109 0.474133,-2.302932 h 0.558799 l 0.445911,2.302932 0.383822,-2.681109 h 0.4572 l -0.513644,2.97462 z"
         style="font-family:'Fira Mono';-inkscape-font-specification:'Fira Mono'"
         id="path12329" />
      <path
         d="m 65.465193,62.950635 -0.389466,-2.178754 -0.417689,2.178754 h -0.654755 l -0.536222,-2.97462 h 0.479778 l 0.383822,2.681109 0.474133,-2.302932 h 0.558799 l 0.445911,2.302932 0.383822,-2.681109 h 0.4572 l -0.513645,2.97462 z"
         style="font-family:'Fira Mono';-inkscape-font-specification:'Fira Mono'"
         id="path12331" />
      <path
         d="m 72.238509,62.950635 -0.389467,-2.178754 -0.417688,2.178754 h -0.654755 l -0.536222,-2.97462 h 0.479777 l 0.383822,2.681109 0.474133,-2.302932 h 0.5588 l 0.44591,2.302932 0.383822,-2.681109 h 0.4572 l -0.513644,2.97462 z"
         style="font-family:'Fira Mono';-inkscape-font-specification:'Fira Mono'"
         id="path12333" />
      <path
         d="M 75.625166,62.950635 75.2357,60.771881 74.818011,62.950635 h -0.654755 l -0.536222,-2.97462 h 0.479778 l 0.383822,2.681109 0.474133,-2.302932 h 0.558799 l 0.445911,2.302932 0.383822,-2.681109 h 0.4572 l -0.513644,2.97462 z"
         style="font-family:'Fira Mono';-inkscape-font-specification:'Fira Mono'"
         id="path12335" />
      <path
         d="m 79.011816,62.950635 -0.389466,-2.178754 -0.417689,2.178754 h -0.654755 l -0.536221,-2.97462 h 0.479777 l 0.383822,2.681109 0.474133,-2.302932 h 0.558799 l 0.445911,2.302932 0.383822,-2.681109 h 0.4572 l -0.513644,2.97462 z"
         style="font-family:'Fira Mono';-inkscape-font-specification:'Fira Mono'"
         id="path12337" />
      <path
         d="m 82.398474,62.950635 -0.389466,-2.178754 -0.417689,2.178754 h -0.654755 l -0.536222,-2.97462 h 0.479778 l 0.383822,2.681109 0.474133,-2.302932 h 0.558799 l 0.445911,2.302932 0.383822,-2.681109 h 0.457199 l -0.513644,2.97462 z"
         style="font-family:'Fira Mono';-inkscape-font-specification:'Fira Mono'"
         id="path12339" />
      <path
         d="m 106.10506,62.950635 -0.38946,-2.178754 -0.41769,2.178754 h -0.65476 l -0.53622,-2.97462 h 0.47978 l 0.38382,2.681109 0.47413,-2.302932 h 0.5588 l 0.44591,2.302932 0.38383,-2.681109 h 0.4572 l -0.51365,2.97462 z"
         style="font-family:'Fira Mono';-inkscape-font-specification:'Fira Mono'"
         id="path12341" />
      <path
         d="m 31.598639,70.052264 -0.389467,-2.178754 -0.417688,2.178754 h -0.654755 l -0.536222,-2.97462 h 0.479777 l 0.383822,2.681109 0.474133,-2.302931 h 0.5588 l 0.445911,2.302931 0.383822,-2.681109 h 0.457199 l -0.513644,2.97462 z"
         style="font-family:'Fira Mono';-inkscape-font-specification:'Fira Mono'"
         id="path12343" />
      <path
         d="M 34.985297,70.052264 34.59583,67.87351 34.178142,70.052264 h -0.654755 l -0.536222,-2.97462 h 0.479777 l 0.383822,2.681109 0.474133,-2.302931 h 0.5588 l 0.44591,2.302931 0.383822,-2.681109 h 0.4572 l -0.513644,2.97462 z"
         style="font-family:'Fira Mono';-inkscape-font-specification:'Fira Mono'"
         id="path12345" />
      <path
         d="M 38.37195,70.052264 37.982484,67.87351 37.564796,70.052264 H 36.91004 l -0.536221,-2.97462 h 0.479777 l 0.383822,2.681109 0.474133,-2.302931 h 0.5588 l 0.44591,2.302931 0.383822,-2.681109 h 0.4572 l -0.513644,2.97462 z"
         style="font-family:'Fira Mono';-inkscape-font-specification:'Fira Mono'"
         id="path12347" />
      <path
         d="m 41.758608,70.052264 -0.389466,-2.178754 -0.417689,2.178754 h -0.654755 l -0.536222,-2.97462 h 0.479778 l 0.383822,2.681109 0.474133,-2.302931 h 0.558799 l 0.445911,2.302931 0.383822,-2.681109 h 0.4572 l -0.513644,2.97462 z"
         style="font-family:'Fira Mono';-inkscape-font-specification:'Fira Mono'"
         id="path12349" />
      <path
         d="m 45.145262,70.052264 -0.389466,-2.178754 -0.417689,2.178754 h -0.654755 l -0.536222,-2.97462 h 0.479778 l 0.383822,2.681109 0.474133,-2.302931 h 0.558799 l 0.445911,2.302931 0.383822,-2.681109 h 0.4572 l -0.513645,2.97462 z"
         style="font-family:'Fira Mono';-inkscape-font-specification:'Fira Mono'"
         id="path12351" />
      <path
         d="m 62.078543,70.052264 -0.389466,-2.178754 -0.417689,2.178754 h -0.654755 l -0.536222,-2.97462 h 0.479778 l 0.383822,2.681109 0.474133,-2.302931 h 0.558799 l 0.445911,2.302931 0.383822,-2.681109 h 0.457199 l -0.513644,2.97462 z"
         style="font-family:'Fira Mono';-inkscape-font-specification:'Fira Mono'"
         id="path12353" />
      <path
         d="M 75.625166,70.052264 75.2357,67.87351 74.818011,70.052264 h -0.654755 l -0.536222,-2.97462 h 0.479778 l 0.383822,2.681109 0.474133,-2.302931 h 0.558799 l 0.445911,2.302931 0.383822,-2.681109 h 0.4572 l -0.513644,2.97462 z"
         style="font-family:'Fira Mono';-inkscape-font-specification:'Fira Mono'"
         id="path12355" />
      <path
         d="M 79.011816,70.052264 78.62235,67.87351 78.204661,70.052264 h -0.654755 l -0.536221,-2.97462 h 0.479777 l 0.383822,2.681109 0.474133,-2.302931 h 0.558799 l 0.445911,2.302931 0.383822,-2.681109 h 0.4572 l -0.513644,2.97462 z"
         style="font-family:'Fira Mono';-inkscape-font-specification:'Fira Mono'"
         id="path12357" />
      <path
         d="m 82.398474,70.052264 -0.389466,-2.178754 -0.417689,2.178754 h -0.654755 l -0.536222,-2.97462 h 0.479778 l 0.383822,2.681109 0.474133,-2.302931 h 0.558799 l 0.445911,2.302931 0.383822,-2.681109 h 0.457199 l -0.513644,2.97462 z"
         style="font-family:'Fira Mono';-inkscape-font-specification:'Fira Mono'"
         id="path12359" />
      <path
         d="M 85.785132,70.052264 85.395665,67.87351 84.977977,70.052264 H 84.323222 L 83.787,67.077644 h 0.479777 l 0.383822,2.681109 0.474133,-2.302931 h 0.5588 l 0.445911,2.302931 0.383822,-2.681109 h 0.457199 l -0.513644,2.97462 z"
         style="font-family:'Fira Mono';-inkscape-font-specification:'Fira Mono'"
         id="path12361" />
      <path
         d="m 102.71841,70.052264 -0.38947,-2.178754 -0.41769,2.178754 h -0.65475 l -0.53623,-2.97462 h 0.47978 l 0.38382,2.681109 0.47414,-2.302931 h 0.5588 l 0.44591,2.302931 0.38382,-2.681109 h 0.4572 l -0.51365,2.97462 z"
         style="font-family:'Fira Mono';-inkscape-font-specification:'Fira Mono'"
         id="path12363" />
      <path
         d="m 106.10506,70.052264 -0.38946,-2.178754 -0.41769,2.178754 h -0.65476 l -0.53622,-2.97462 h 0.47978 l 0.38382,2.681109 0.47413,-2.302931 h 0.5588 l 0.44591,2.302931 0.38383,-2.681109 h 0.4572 l -0.51365,2.97462 z"
         style="font-family:'Fira Mono';-inkscape-font-specification:'Fira Mono'"
         id="path12365" />
      <path
         d="M 34.985297,77.153894 34.59583,74.97514 34.178142,77.153894 h -0.654755 l -0.536222,-2.97462 h 0.479777 l 0.383822,2.681109 0.474133,-2.302932 h 0.5588 l 0.44591,2.302932 0.383822,-2.681109 h 0.4572 l -0.513644,2.97462 z"
         style="font-family:'Fira Mono';-inkscape-font-specification:'Fira Mono'"
         id="path12367" />
      <path
         d="M 38.37195,77.153894 37.982484,74.97514 37.564796,77.153894 H 36.91004 l -0.536221,-2.97462 h 0.479777 l 0.383822,2.681109 0.474133,-2.302932 h 0.5588 l 0.44591,2.302932 0.383822,-2.681109 h 0.4572 l -0.513644,2.97462 z"
         style="font-family:'Fira Mono';-inkscape-font-specification:'Fira Mono'"
         id="path12369" />
      <path
         d="m 41.758608,77.153894 -0.389466,-2.178754 -0.417689,2.178754 h -0.654755 l -0.536222,-2.97462 h 0.479778 l 0.383822,2.681109 0.474133,-2.302932 h 0.558799 l 0.445911,2.302932 0.383822,-2.681109 h 0.4572 l -0.513644,2.97462 z"
         style="font-family:'Fira Mono';-inkscape-font-specification:'Fira Mono'"
         id="path12371" />
      <path
         d="m 45.145262,77.153894 -0.389466,-2.178754 -0.417689,2.178754 h -0.654755 l -0.536222,-2.97462 h 0.479778 l 0.383822,2.681109 0.474133,-2.302932 h 0.558799 l 0.445911,2.302932 0.383822,-2.681109 h 0.4572 l -0.513645,2.97462 z"
         style="font-family:'Fira Mono';-inkscape-font-specification:'Fira Mono'"
         id="path12373" />
      <path
         d="M 58.691885,77.153894 58.302419,74.97514 57.88473,77.153894 h -0.654755 l -0.536222,-2.97462 h 0.479778 l 0.383822,2.681109 0.474133,-2.302932 h 0.558799 l 0.445911,2.302932 0.383822,-2.681109 h 0.4572 l -0.513644,2.97462 z"
         style="font-family:'Fira Mono';-inkscape-font-specification:'Fira Mono'"
         id="path12375" />
      <path
         d="M 79.011816,77.153894 78.62235,74.97514 78.204661,77.153894 h -0.654755 l -0.536221,-2.97462 h 0.479777 l 0.383822,2.681109 0.474133,-2.302932 h 0.558799 l 0.445911,2.302932 0.383822,-2.681109 h 0.4572 l -0.513644,2.97462 z"
         style="font-family:'Fira Mono';-inkscape-font-specification:'Fira Mono'"
         id="path12377" />
      <path
         d="m 82.398474,77.153894 -0.389466,-2.178754 -0.417689,2.178754 h -0.654755 l -0.536222,-2.97462 h 0.479778 l 0.383822,2.681109 0.474133,-2.302932 h 0.558799 l 0.445911,2.302932 0.383822,-2.681109 h 0.457199 l -0.513644,2.97462 z"
         style="font-family:'Fira Mono';-inkscape-font-specification:'Fira Mono'"
         id="path12379" />
      <path
         d="M 85.785132,77.153894 85.395665,74.97514 84.977977,77.153894 H 84.323222 L 83.787,74.179274 h 0.479777 l 0.383822,2.681109 0.474133,-2.302932 h 0.5588 l 0.445911,2.302932 0.383822,-2.681109 h 0.457199 l -0.513644,2.97462 z"
         style="font-family:'Fira Mono';-inkscape-font-specification:'Fira Mono'"
         id="path12381" />
      <path
         d="m 89.171782,77.153894 -0.389467,-2.178754 -0.417688,2.178754 h -0.654755 l -0.536222,-2.97462 h 0.479777 l 0.383822,2.681109 0.474133,-2.302932 h 0.5588 l 0.445911,2.302932 0.383822,-2.681109 h 0.457199 l -0.513644,2.97462 z"
         style="font-family:'Fira Mono';-inkscape-font-specification:'Fira Mono'"
         id="path12383" />
      <path
         d="M 99.331755,77.153894 98.942289,74.97514 98.5246,77.153894 h -0.654755 l -0.536222,-2.97462 h 0.479778 l 0.383822,2.681109 0.474132,-2.302932 h 0.5588 l 0.445911,2.302932 0.383824,-2.681109 h 0.4572 l -0.51365,2.97462 z"
         style="font-family:'Fira Mono';-inkscape-font-specification:'Fira Mono'"
         id="path12385" />
      <path
         d="m 102.71841,77.153894 -0.38947,-2.178754 -0.41769,2.178754 h -0.65475 l -0.53623,-2.97462 h 0.47978 l 0.38382,2.681109 0.47414,-2.302932 h 0.5588 l 0.44591,2.302932 0.38382,-2.681109 h 0.4572 l -0.51365,2.97462 z"
         style="font-family:'Fira Mono';-inkscape-font-specification:'Fira Mono'"
         id="path12387" />
      <path
         d="m 38.37195,84.255523 -0.389466,-2.178754 -0.417688,2.178754 H 36.91004 l -0.536221,-2.97462 h 0.479777 l 0.383822,2.681109 0.474133,-2.302931 h 0.5588 l 0.44591,2.302931 0.383822,-2.681109 h 0.4572 l -0.513644,2.97462 z"
         style="font-family:'Fira Mono';-inkscape-font-specification:'Fira Mono'"
         id="path12389" />
      <path
         d="m 41.758608,84.255523 -0.389466,-2.178754 -0.417689,2.178754 h -0.654755 l -0.536222,-2.97462 h 0.479778 l 0.383822,2.681109 0.474133,-2.302931 h 0.558799 l 0.445911,2.302931 0.383822,-2.681109 h 0.4572 l -0.513644,2.97462 z"
         style="font-family:'Fira Mono';-inkscape-font-specification:'Fira Mono'"
         id="path12391" />
      <path
         d="m 45.145262,84.255523 -0.389466,-2.178754 -0.417689,2.178754 h -0.654755 l -0.536222,-2.97462 h 0.479778 l 0.383822,2.681109 0.474133,-2.302931 h 0.558799 l 0.445911,2.302931 0.383822,-2.681109 h 0.4572 l -0.513645,2.97462 z"
         style="font-family:'Fira Mono';-inkscape-font-specification:'Fira Mono'"
         id="path12393" />
      <path
         d="m 48.53192,84.255523 -0.389467,-2.178754 -0.417688,2.178754 H 47.07001 l -0.536222,-2.97462 h 0.479777 l 0.383822,2.681109 0.474133,-2.302931 h 0.5588 l 0.445911,2.302931 0.383822,-2.681109 h 0.457199 l -0.513644,2.97462 z"
         style="font-family:'Fira Mono';-inkscape-font-specification:'Fira Mono'"
         id="path12395" />
      <path
         d="m 55.305228,84.255523 -0.389467,-2.178754 -0.417688,2.178754 h -0.654755 l -0.536222,-2.97462 h 0.479777 l 0.383822,2.681109 0.474133,-2.302931 h 0.5588 l 0.44591,2.302931 0.383822,-2.681109 h 0.4572 l -0.513644,2.97462 z"
         style="font-family:'Fira Mono';-inkscape-font-specification:'Fira Mono'"
         id="path12397" />
      <path
         d="m 82.398474,84.255523 -0.389466,-2.178754 -0.417689,2.178754 h -0.654755 l -0.536222,-2.97462 h 0.479778 l 0.383822,2.681109 0.474133,-2.302931 h 0.558799 l 0.445911,2.302931 0.383822,-2.681109 h 0.457199 l -0.513644,2.97462 z"
         style="font-family:'Fira Mono';-inkscape-font-specification:'Fira Mono'"
         id="path12399" />
      <path
         d="m 85.785132,84.255523 -0.389467,-2.178754 -0.417688,2.178754 H 84.323222 L 83.787,81.280903 h 0.479777 l 0.383822,2.681109 0.474133,-2.302931 h 0.5588 l 0.445911,2.302931 0.383822,-2.681109 h 0.457199 l -0.513644,2.97462 z"
         style="font-family:'Fira Mono';-inkscape-font-specification:'Fira Mono'"
         id="path12401" />
      <path
         d="m 89.171782,84.255523 -0.389467,-2.178754 -0.417688,2.178754 h -0.654755 l -0.536222,-2.97462 h 0.479777 l 0.383822,2.681109 0.474133,-2.302931 h 0.5588 l 0.445911,2.302931 0.383822,-2.681109 h 0.457199 l -0.513644,2.97462 z"
         style="font-family:'Fira Mono';-inkscape-font-specification:'Fira Mono'"
         id="path12403" />
      <path
         d="m 92.55844,84.255523 -0.389467,-2.178754 -0.417688,2.178754 H 91.09653 l -0.536222,-2.97462 h 0.479777 l 0.383822,2.681109 0.474133,-2.302931 h 0.5588 l 0.44591,2.302931 0.383822,-2.681109 h 0.4572 l -0.513644,2.97462 z"
         style="font-family:'Fira Mono';-inkscape-font-specification:'Fira Mono'"
         id="path12405" />
      <path
         d="m 95.945097,84.255523 -0.389466,-2.178754 -0.417689,2.178754 h -0.654755 l -0.536222,-2.97462 h 0.479778 l 0.383822,2.681109 0.474133,-2.302931 h 0.558799 l 0.445911,2.302931 0.383822,-2.681109 h 0.4572 l -0.513644,2.97462 z"
         style="font-family:'Fira Mono';-inkscape-font-specification:'Fira Mono'"
         id="path12407" />
      <path
         d="M 99.331755,84.255523 98.942289,82.076769 98.5246,84.255523 h -0.654755 l -0.536222,-2.97462 h 0.479778 l 0.383822,2.681109 0.474132,-2.302931 h 0.5588 l 0.445911,2.302931 0.383824,-2.681109 h 0.4572 l -0.51365,2.97462 z"
         style="font-family:'Fira Mono';-inkscape-font-specification:'Fira Mono'"
         id="path12409" />
      <path
         d="m 41.758608,91.357153 -0.389466,-2.178754 -0.417689,2.178754 h -0.654755 l -0.536222,-2.97462 h 0.479778 l 0.383822,2.681109 0.474133,-2.302932 h 0.558799 l 0.445911,2.302932 0.383822,-2.681109 h 0.4572 l -0.513644,2.97462 z"
         style="font-family:'Fira Mono';-inkscape-font-specification:'Fira Mono'"
         id="path12411" />
      <path
         d="m 45.145262,91.357153 -0.389466,-2.178754 -0.417689,2.178754 h -0.654755 l -0.536222,-2.97462 h 0.479778 l 0.383822,2.681109 0.474133,-2.302932 h 0.558799 l 0.445911,2.302932 0.383822,-2.681109 h 0.4572 l -0.513645,2.97462 z"
         style="font-family:'Fira Mono';-inkscape-font-specification:'Fira Mono'"
         id="path12413" />
      <path
         d="m 48.53192,91.357153 -0.389467,-2.178754 -0.417688,2.178754 H 47.07001 l -0.536222,-2.97462 h 0.479777 l 0.383822,2.681109 0.474133,-2.302932 h 0.5588 l 0.445911,2.302932 0.383822,-2.681109 h 0.457199 l -0.513644,2.97462 z"
         style="font-family:'Fira Mono';-inkscape-font-specification:'Fira Mono'"
         id="path12415" />
      <path
         d="m 51.918574,91.357153 -0.389467,-2.178754 -0.417688,2.178754 h -0.654755 l -0.536222,-2.97462 h 0.479777 l 0.383822,2.681109 0.474133,-2.302932 h 0.5588 l 0.445911,2.302932 0.383821,-2.681109 h 0.4572 l -0.513644,2.97462 z"
         style="font-family:'Fira Mono';-inkscape-font-specification:'Fira Mono'"
         id="path12417" />
      <path
         d="m 82.398474,91.357153 -0.389466,-2.178754 -0.417689,2.178754 h -0.654755 l -0.536222,-2.97462 h 0.479778 l 0.383822,2.681109 0.474133,-2.302932 h 0.558799 l 0.445911,2.302932 0.383822,-2.681109 h 0.457199 l -0.513644,2.97462 z"
         style="font-family:'Fira Mono';-inkscape-font-specification:'Fira Mono'"
         id="path12419" />
      <path
         d="m 85.785132,91.357153 -0.389467,-2.178754 -0.417688,2.178754 H 84.323222 L 83.787,88.382533 h 0.479777 l 0.383822,2.681109 0.474133,-2.302932 h 0.5588 l 0.445911,2.302932 0.383822,-2.681109 h 0.457199 l -0.513644,2.97462 z"
         style="font-family:'Fira Mono';-inkscape-font-specification:'Fira Mono'"
         id="path12421" />
      <path
         d="m 89.171782,91.357153 -0.389467,-2.178754 -0.417688,2.178754 h -0.654755 l -0.536222,-2.97462 h 0.479777 l 0.383822,2.681109 0.474133,-2.302932 h 0.5588 l 0.445911,2.302932 0.383822,-2.681109 h 0.457199 l -0.513644,2.97462 z"
         style="font-family:'Fira Mono';-inkscape-font-specification:'Fira Mono'"
         id="path12423" />
      <path
         d="m 92.55844,91.357153 -0.389467,-2.178754 -0.417688,2.178754 H 91.09653 l -0.536222,-2.97462 h 0.479777 l 0.383822,2.681109 0.474133,-2.302932 h 0.5588 l 0.44591,2.302932 0.383822,-2.681109 h 0.4572 l -0.513644,2.97462 z"
         style="font-family:'Fira Mono';-inkscape-font-specification:'Fira Mono'"
         id="path12425" />
      <path
         d="m 95.945097,91.357153 -0.389466,-2.178754 -0.417689,2.178754 h -0.654755 l -0.536222,-2.97462 h 0.479778 l 0.383822,2.681109 0.474133,-2.302932 h 0.558799 l 0.445911,2.302932 0.383822,-2.681109 h 0.4572 l -0.513644,2.97462 z"
         style="font-family:'Fira Mono';-inkscape-font-specification:'Fira Mono'"
         id="path12427" />
      <path
         d="m 45.145262,98.458782 -0.389466,-2.178754 -0.417689,2.178754 h -0.654755 l -0.536222,-2.97462 h 0.479778 l 0.383822,2.681109 0.474133,-2.302931 h 0.558799 l 0.445911,2.302931 0.383822,-2.681109 h 0.4572 l -0.513645,2.97462 z"
         style="font-family:'Fira Mono';-inkscape-font-specification:'Fira Mono'"
         id="path12429" />
      <path
         d="m 48.53192,98.458782 -0.389467,-2.178754 -0.417688,2.178754 H 47.07001 l -0.536222,-2.97462 h 0.479777 l 0.383822,2.681109 0.474133,-2.302931 h 0.5588 l 0.445911,2.302931 0.383822,-2.681109 h 0.457199 l -0.513644,2.97462 z"
         style="font-family:'Fira Mono';-inkscape-font-specification:'Fira Mono'"
         id="path12431" />
      <path
         d="m 51.918574,98.458782 -0.389467,-2.178754 -0.417688,2.178754 h -0.654755 l -0.536222,-2.97462 h 0.479777 l 0.383822,2.681109 0.474133,-2.302931 h 0.5588 l 0.445911,2.302931 0.383821,-2.681109 h 0.4572 l -0.513644,2.97462 z"
         style="font-family:'Fira Mono';-inkscape-font-specification:'Fira Mono'"
         id="path12433" />
      <path
         d="m 85.785132,98.458782 -0.389467,-2.178754 -0.417688,2.178754 H 84.323222 L 83.787,95.484162 h 0.479777 l 0.383822,2.681109 0.474133,-2.302931 h 0.5588 l 0.445911,2.302931 0.383822,-2.681109 h 0.457199 l -0.513644,2.97462 z"
         style="font-family:'Fira Mono';-inkscape-font-specification:'Fira Mono'"
         id="path12435" />
      <path
         d="m 89.171782,98.458782 -0.389467,-2.178754 -0.417688,2.178754 h -0.654755 l -0.536222,-2.97462 h 0.479777 l 0.383822,2.681109 0.474133,-2.302931 h 0.5588 l 0.445911,2.302931 0.383822,-2.681109 h 0.457199 l -0.513644,2.97462 z"
         style="font-family:'Fira Mono';-inkscape-font-specification:'Fira Mono'"
         id="path12437" />
      <path
         d="m 92.55844,98.458782 -0.389467,-2.178754 -0.417688,2.178754 H 91.09653 l -0.536222,-2.97462 h 0.479777 l 0.383822,2.681109 0.474133,-2.302931 h 0.5588 l 0.44591,2.302931 0.383822,-2.681109 h 0.4572 l -0.513644,2.97462 z"
         style="font-family:'Fira Mono';-inkscape-font-specification:'Fira Mono'"
         id="path12439" />
      <path
         d="m 48.53192,105.56041 -0.389467,-2.17875 -0.417688,2.17875 H 47.07001 l -0.536222,-2.97462 h 0.479777 l 0.383822,2.68111 0.474133,-2.30293 h 0.5588 l 0.445911,2.30293 0.383822,-2.68111 h 0.457199 l -0.513644,2.97462 z"
         style="font-family:'Fira Mono';-inkscape-font-specification:'Fira Mono'"
         id="path12441" />
      <path
         d="m 89.171782,105.56041 -0.389467,-2.17875 -0.417688,2.17875 h -0.654755 l -0.536222,-2.97462 h 0.479777 l 0.383822,2.68111 0.474133,-2.30293 h 0.5588 l 0.445911,2.30293 0.383822,-2.68111 h 0.457199 l -0.513644,2.97462 z"
         style="font-family:'Fira Mono';-inkscape-font-specification:'Fira Mono'"
         id="path12443" />
    </g>
  </g>
</svg>
